<svg width="12" height="14" viewBox="0 0 12 14" fill="none" xmlns="http://www.w3.org/2000/svg">
<path fill-rule="evenodd" clip-rule="evenodd" d="M11.8109 7C11.1448 3.98085 8.7957 1.75 5.99995 1.75C3.20418 1.75 0.85503 3.98085 0.188965 7C0.85503 10.0192 3.20418 12.25 5.99995 12.25C8.7957 12.25 11.1448 10.0192 11.8109 7ZM1.22855 7C1.8656 9.36723 3.76216 11.0833 5.99995 11.0833C8.2377 11.0833 10.1343 9.36723 10.7713 7C10.1343 4.63275 8.2377 2.91667 5.99995 2.91667C3.76216 2.91667 1.8656 4.63275 1.22855 7ZM5.99995 9.33333C7.1045 9.33333 7.99995 8.28864 7.99995 7C7.99995 5.71133 7.1045 4.66667 5.99995 4.66667C4.89537 4.66667 3.99994 5.71133 3.99994 7C3.99994 8.28864 4.89537 9.33333 5.99995 9.33333ZM5.99995 8.16667C6.5522 8.16667 6.99995 7.64435 6.99995 7C6.99995 6.35565 6.5522 5.83333 5.99995 5.83333C5.44765 5.83333 4.99994 6.35565 4.99994 7C4.99994 7.64435 5.44765 8.16667 5.99995 8.16667Z" fill="#171717"/>
</svg>
