<svg width="11" height="12" viewBox="0 0 11 12" fill="none" xmlns="http://www.w3.org/2000/svg">
<path fill-rule="evenodd" clip-rule="evenodd" d="M8.25 5.25C9.00941 5.25 9.625 5.92155 9.625 6.75V9.75C9.625 10.5785 9.00941 11.25 8.25 11.25H2.75C1.99061 11.25 1.375 10.5785 1.375 9.75V6.75C1.375 5.92155 1.99061 5.25 2.75 5.25V3.75C2.75 2.09315 3.98122 0.75 5.5 0.75C7.01878 0.75 8.25 2.09315 8.25 3.75V5.25ZM5.5 1.75C6.5125 1.75 7.33333 2.64543 7.33333 3.75V5.25H3.66667V3.75C3.66667 2.64543 4.48748 1.75 5.5 1.75ZM8.25 6.25H2.75C2.49687 6.25 2.29167 6.47385 2.29167 6.75V9.75C2.29167 10.0261 2.49687 10.25 2.75 10.25H8.25C8.50314 10.25 8.70833 10.0261 8.70833 9.75V6.75C8.70833 6.47385 8.50314 6.25 8.25 6.25Z" fill="#171717"/>
</svg>
