<svg width="148" height="111" viewBox="0 0 148 111" fill="none" xmlns="http://www.w3.org/2000/svg">
<path d="M73.7066 110.201C105.277 110.201 130.87 108.707 130.87 106.864C130.87 105.021 105.277 103.527 73.7066 103.527C42.1358 103.527 16.5427 105.021 16.5427 106.864C16.5427 108.707 42.1358 110.201 73.7066 110.201Z" fill="#F5F5F5"/>
<path d="M102.968 32.329L100.043 31.1497C100.043 31.1497 96.1841 38.1872 95.0785 38.5439C93.5749 39.0274 90.4616 40.3718 88.616 40.6077C88.3654 40.9025 87.9555 41.8194 87.9939 42.1526C90.4734 42.981 95.9217 41.8813 97.0893 41.0146C99.7456 39.0481 102.968 32.329 102.968 32.329Z" fill="#E58A7B"/>
<path d="M103.867 30.7281C104.413 32.7417 101.459 36.7926 101.459 36.7926L97.5875 34.6227C97.5875 34.6227 98.3127 32.9569 99.1972 31.2617C100.615 28.5228 103.245 28.4314 103.867 30.7281Z" fill="#4CAF4F"/>
<path opacity="0.2" d="M103.867 30.7281C104.413 32.7417 101.459 36.7926 101.459 36.7926L97.5875 34.6227C97.5875 34.6227 98.3127 32.9569 99.1972 31.2617C100.615 28.5228 103.245 28.4314 103.867 30.7281Z" fill="black"/>
<path opacity="0.2" d="M99.1236 35.4895L100.648 36.3445L100.916 31.6656C100.029 32.3467 99.4036 34.3987 99.1236 35.4895Z" fill="black"/>
<path d="M101.32 29.2127C101.32 29.2127 98.3069 35.917 100.064 48.3999H111.937C112.125 46.5779 111.5 37.686 113.762 29.1006C112.459 28.8461 111.141 28.6777 109.817 28.5965C108.137 28.4991 106.452 28.4991 104.772 28.5965C103.608 28.7147 102.454 28.9207 101.32 29.2127Z" fill="#4CAF4F"/>
<path opacity="0.2" d="M101.32 29.2127C101.32 29.2127 98.3069 35.917 100.064 48.3999H111.937C112.125 46.5779 111.5 37.686 113.762 29.1006C112.459 28.8461 111.141 28.6777 109.817 28.5965C108.137 28.4991 106.452 28.4991 104.772 28.5965C103.608 28.7147 102.454 28.9207 101.32 29.2127Z" fill="black"/>
<g style="mix-blend-mode:multiply">
<path d="M98.5663 107.129C98.5486 107.448 103.051 107.704 108.62 107.704C114.189 107.704 118.724 107.448 118.741 107.129C118.759 106.811 114.26 106.557 108.688 106.557C103.115 106.557 98.5869 106.814 98.5663 107.129Z" fill="#E8ECF1"/>
</g>
<path d="M106.491 98.763L104.386 99.5781L106.2 104.264L108.305 103.449L106.491 98.763Z" fill="#E58A7B"/>
<path d="M115.881 104.862H113.661L112.848 99.7233H115.068L115.881 104.862Z" fill="#E58A7B"/>
<path d="M113.508 104.606H116.002C116.046 104.606 116.087 104.621 116.12 104.649C116.153 104.677 116.175 104.716 116.182 104.759L116.504 106.731C116.51 106.781 116.506 106.831 116.492 106.879C116.478 106.927 116.453 106.971 116.42 107.008C116.387 107.046 116.346 107.076 116.301 107.096C116.255 107.117 116.206 107.127 116.156 107.126C115.286 107.112 114.867 107.059 113.771 107.059C113.095 107.059 111.707 107.129 110.769 107.129C109.832 107.129 109.77 106.209 110.156 106.124C111.89 105.75 112.562 105.239 113.14 104.744C113.241 104.655 113.372 104.605 113.508 104.606Z" fill="#263238"/>
<path d="M106.137 103.845L108.496 103.155C108.538 103.143 108.583 103.146 108.623 103.163C108.663 103.18 108.697 103.211 108.717 103.249L109.602 105.018C109.622 105.063 109.633 105.112 109.632 105.161C109.632 105.211 109.621 105.259 109.6 105.304C109.579 105.349 109.548 105.388 109.51 105.42C109.473 105.451 109.428 105.474 109.381 105.487C108.523 105.723 107.948 105.867 106.875 106.18C106.134 106.395 105.38 106.746 104.649 106.979C104.141 107.141 102.95 107.147 102.334 107.147C101.423 107.147 101.22 106.186 101.612 106.142C102.6 106.033 102.732 106.083 103.278 105.808C104.17 105.418 104.979 104.86 105.66 104.163C105.788 104.017 105.953 103.907 106.137 103.845Z" fill="#263238"/>
<path d="M88.9874 40.5959L86.5463 39.5728L85.5409 42.2793C86.5415 42.4318 87.5594 42.4318 88.5599 42.2793L88.9874 40.5959Z" fill="#E58A7B"/>
<path d="M84.7301 39.5021L84.6653 41.3005L85.5409 42.2735L86.5463 39.5669L84.7301 39.5021Z" fill="#E58A7B"/>
<path d="M106.78 99.1609L104.668 99.9764L105.603 102.399L107.716 101.584L106.78 99.1609Z" fill="#CF6F64"/>
<path d="M115.068 99.7233H112.848L113.269 102.374H115.489L115.068 99.7233Z" fill="#CF6F64"/>
<path opacity="0.2" d="M99.6867 45.0242C99.7309 45.5578 99.781 46.1032 99.8459 46.6634L108.673 43.7977C110.051 43.3892 111.249 42.5229 112.069 41.3418C112.105 40.5546 112.149 39.7262 112.217 38.8623C112.246 38.4437 112.282 38.0132 112.32 37.5769C112.358 37.1405 112.411 36.657 112.467 36.1912L99.6867 45.0242Z" fill="black"/>
<path d="M102.57 35.3539L102.275 35.3185C102.449 33.8444 103.549 32.6828 104.708 32.7123V33.0071C103.693 32.9864 102.726 34.0331 102.57 35.3539Z" fill="white"/>
<path d="M104.141 38.0751H104.091V37.7803C105.106 37.8186 106.058 36.7602 106.214 35.4423L106.509 35.4777C106.353 36.9194 105.288 38.0751 104.141 38.0751Z" fill="white"/>
<path d="M109.652 22.9152C109.236 24.5397 108.747 27.5144 109.817 28.5965C109.817 28.5965 109.068 30.2445 106.052 30.2445C103.295 30.2445 104.772 28.5965 104.772 28.5965C106.606 28.166 106.639 26.8275 106.397 25.5598L109.652 22.9152Z" fill="#E58A7B"/>
<path d="M108.325 23.9942L106.4 25.5598C106.46 25.8511 106.494 26.147 106.503 26.4443C107.066 27.0044 108.195 25.5863 108.31 24.861C108.369 24.5755 108.374 24.2816 108.325 23.9942Z" fill="#CF6F64"/>
<path d="M103.089 22.8945C103.223 23.1267 103.403 23.3288 103.619 23.4881C103.835 23.6473 104.081 23.7604 104.342 23.8203C105.05 23.9765 105.403 23.325 105.209 22.6705C105.035 22.0808 104.454 21.2877 103.735 21.4233C103.581 21.4551 103.436 21.5233 103.314 21.6222C103.192 21.7212 103.095 21.848 103.032 21.9921C102.968 22.1361 102.941 22.2933 102.951 22.4503C102.961 22.6073 103.008 22.7596 103.089 22.8945Z" fill="#CF6F64"/>
<path d="M104.259 17.6968C103.157 18.2009 102.768 22.582 104.153 23.2306C105.539 23.8793 106.347 16.7386 104.259 17.6968Z" fill="#263238"/>
<path d="M109.988 20.4711C109.723 22.6705 109.693 23.9647 108.514 25.091C108.148 25.4647 107.687 25.7302 107.18 25.8581C106.673 25.986 106.141 25.9714 105.642 25.8158C105.143 25.6603 104.696 25.3698 104.352 24.9766C104.008 24.5833 103.779 24.1026 103.69 23.5874C103.334 21.612 103.826 18.3483 106.031 17.4727C106.495 17.2683 107.004 17.1916 107.507 17.2505C108.01 17.3093 108.488 17.5017 108.892 17.8076C109.296 18.1134 109.61 18.5217 109.803 18.99C109.995 19.4584 110.059 19.9697 109.988 20.4711Z" fill="#E58A7B"/>
<path d="M106.364 18.8348C107.998 18.4191 109.198 18.136 108.767 19.4952C108.198 21.3113 107.514 23.0685 108.431 23.1481C108.991 23.1982 111.468 22.1486 111.152 21.0843C110.878 20.1585 112.037 19.905 112.243 19.4362C113.007 17.738 110.822 17.9621 111.211 16.9302C111.601 15.8983 109.442 14.2355 108.263 15.0639C106.344 16.4025 103.051 16.3818 104.781 14.1795C106.022 12.608 103.808 12.9294 103.808 12.9294C103.808 12.9294 105.147 13.7225 102.894 14.949C100.512 16.258 102.697 19.7753 106.364 18.8348Z" fill="#263238"/>
<path d="M110.855 22.8945C110.532 23.3611 110.048 23.6911 109.496 23.8203C108.767 23.9765 108.487 23.325 108.761 22.6705C109.006 22.0808 109.678 21.2877 110.374 21.4233C111.07 21.559 111.229 22.3167 110.855 22.8945Z" fill="#E58A7B"/>
<path d="M100.064 48.3999C100.064 48.3999 98.071 66.2369 97.9147 73.0061C97.7555 80.0466 104.669 102.014 104.669 102.014L108.207 100.54C108.207 100.54 104.08 80.4682 104.669 73.5545C105.294 66.0158 107.877 48.4117 107.877 48.4117L100.064 48.3999Z" fill="#4CAF4F"/>
<path opacity="0.2" d="M105.017 53.297C103.428 56.5931 104.498 63.1118 105.359 66.974C105.686 64.2468 106.076 61.2868 106.444 58.5478C106.409 54.3377 106.081 51.0858 105.017 53.297Z" fill="black"/>
<path d="M108.051 99.3724C108.069 99.3724 108.47 100.499 108.47 100.499L104.389 102.215L103.746 101.018L108.051 99.3724Z" fill="#4CAF4F"/>
<path d="M104.277 48.3999C104.277 48.3999 105.801 65.3642 106.81 71.7177C107.918 78.6786 112.264 101.861 112.264 101.861H116.33C116.33 101.861 113.894 79.2417 113.434 72.3487C112.933 64.8719 111.937 48.3999 111.937 48.3999H104.277Z" fill="#4CAF4F"/>
<path d="M116.392 100.802C116.409 100.802 116.527 101.937 116.527 101.937H112.058L111.739 100.634L116.392 100.802Z" fill="#4CAF4F"/>
<path opacity="0.2" d="M114.835 99.4579C114.826 99.458 114.817 99.4548 114.81 99.4489C114.803 99.4429 114.798 99.4346 114.796 99.4255C114.773 99.2191 112.576 78.7877 112.164 72.5963C111.716 65.8802 110.813 50.9826 110.805 50.8323C110.804 50.8274 110.805 50.8225 110.806 50.8178C110.808 50.8132 110.81 50.8089 110.814 50.8053C110.817 50.8017 110.821 50.7988 110.826 50.7969C110.83 50.7949 110.835 50.7939 110.84 50.7939C110.85 50.7939 110.859 50.7975 110.866 50.8041C110.873 50.8107 110.878 50.8197 110.878 50.8293C110.878 50.9797 111.789 65.8654 112.237 72.5934C112.65 78.7847 114.847 99.2014 114.867 99.4226C114.868 99.4274 114.868 99.4324 114.867 99.4372C114.865 99.442 114.863 99.4465 114.86 99.4504C114.857 99.4543 114.853 99.4575 114.849 99.4598C114.845 99.4621 114.84 99.4635 114.835 99.4638V99.4579Z" fill="black"/>
<path d="M106.615 21.0843C106.615 21.2642 106.503 21.4086 106.385 21.4086C106.267 21.4086 106.182 21.2642 106.193 21.0843C106.205 20.9045 106.306 20.76 106.423 20.76C106.541 20.76 106.627 20.9074 106.615 21.0843Z" fill="#263238"/>
<path d="M104.593 21.0843C104.593 21.2642 104.478 21.4086 104.363 21.4086C104.248 21.4086 104.159 21.2642 104.168 21.0843C104.177 20.9045 104.283 20.76 104.401 20.76C104.519 20.76 104.604 20.9074 104.593 21.0843Z" fill="#263238"/>
<path d="M105.229 21.1757C104.983 21.7249 104.666 22.2393 104.286 22.7058C104.581 23.0007 105.132 22.865 105.132 22.865L105.229 21.1757Z" fill="#DF5753"/>
<path d="M105.282 23.6169C105.276 23.6169 105.269 23.6155 105.263 23.6128C105.256 23.6101 105.251 23.6061 105.246 23.6012C105.241 23.5962 105.238 23.5903 105.235 23.5839C105.233 23.5775 105.232 23.5706 105.232 23.5638C105.233 23.5494 105.239 23.5359 105.25 23.5261C105.26 23.5162 105.274 23.5107 105.288 23.5107C105.514 23.5123 105.737 23.4633 105.941 23.3674C106.145 23.2715 106.325 23.1311 106.468 22.9564C106.478 22.9475 106.491 22.9426 106.505 22.9426C106.518 22.9426 106.531 22.9475 106.541 22.9564C106.551 22.9663 106.556 22.9796 106.556 22.9933C106.556 23.0071 106.551 23.0203 106.541 23.0302C106.389 23.2157 106.196 23.3647 105.978 23.4663C105.761 23.5678 105.523 23.6192 105.282 23.6169Z" fill="#263238"/>
<path d="M106.975 20.5418C106.961 20.5491 106.945 20.5529 106.929 20.5529C106.913 20.5529 106.898 20.5491 106.883 20.5418C106.773 20.4705 106.648 20.4262 106.517 20.4124C106.386 20.3985 106.254 20.4156 106.132 20.4622C106.12 20.4682 106.107 20.4717 106.093 20.4726C106.08 20.4735 106.066 20.4716 106.054 20.4673C106.041 20.4629 106.03 20.456 106.02 20.447C106.01 20.438 106.002 20.4272 105.996 20.4151C105.985 20.3888 105.985 20.3594 105.995 20.3329C106.006 20.3065 106.026 20.2852 106.052 20.2735C106.206 20.2106 106.373 20.1858 106.539 20.2012C106.705 20.2166 106.864 20.2717 107.004 20.362C107.016 20.3697 107.025 20.3795 107.033 20.391C107.04 20.4024 107.045 20.4152 107.048 20.4287C107.05 20.4421 107.05 20.4559 107.047 20.4693C107.044 20.4826 107.039 20.4953 107.031 20.5065C107.016 20.5234 106.996 20.5356 106.975 20.5418Z" fill="#263238"/>
<path d="M103.811 19.9522C103.796 19.9484 103.781 19.9402 103.77 19.9286C103.76 19.919 103.752 19.9075 103.747 19.8948C103.742 19.8822 103.739 19.8686 103.739 19.8549C103.739 19.8411 103.742 19.8275 103.747 19.8149C103.752 19.8022 103.76 19.7908 103.77 19.7812C103.883 19.6544 104.024 19.5555 104.181 19.4921C104.339 19.4287 104.509 19.4025 104.678 19.4156C104.692 19.4177 104.705 19.4225 104.716 19.4298C104.728 19.4372 104.738 19.4468 104.746 19.4581C104.753 19.4694 104.759 19.4822 104.761 19.4957C104.764 19.5092 104.764 19.5231 104.761 19.5365C104.754 19.5638 104.738 19.5878 104.715 19.6041C104.693 19.6204 104.665 19.6278 104.637 19.6249C104.503 19.6165 104.369 19.6386 104.245 19.6897C104.12 19.7408 104.01 19.8194 103.92 19.9197C103.907 19.9346 103.89 19.9456 103.87 19.9513C103.851 19.957 103.831 19.9573 103.811 19.9522Z" fill="#263238"/>
<path d="M114.903 32.0017L111.836 31.185C111.836 31.185 108.829 38.5881 107.765 39.0687C106.32 39.7291 102.661 42.0169 101.105 43.099C101.019 43.4675 101.087 44.4434 101.282 44.7117C103.935 44.2281 109.015 42.2734 110.076 41.2799C112.497 39.0127 114.903 32.0017 114.903 32.0017Z" fill="#E58A7B"/>
<path d="M112.762 104.995C112.613 105.007 112.463 104.966 112.341 104.88C112.303 104.845 112.274 104.802 112.258 104.753C112.242 104.705 112.239 104.653 112.249 104.603C112.251 104.571 112.261 104.541 112.279 104.515C112.297 104.489 112.321 104.468 112.349 104.455C112.597 104.328 113.29 104.768 113.37 104.818C113.378 104.823 113.385 104.831 113.389 104.841C113.392 104.851 113.393 104.861 113.39 104.871C113.388 104.881 113.383 104.891 113.375 104.898C113.368 104.906 113.359 104.912 113.349 104.915C113.157 104.962 112.96 104.989 112.762 104.995ZM112.467 104.535C112.445 104.53 112.422 104.53 112.4 104.535C112.388 104.541 112.379 104.549 112.373 104.56C112.366 104.571 112.363 104.584 112.364 104.597C112.356 104.631 112.358 104.667 112.368 104.7C112.378 104.734 112.397 104.764 112.423 104.788C112.538 104.892 112.827 104.903 113.207 104.83C112.981 104.681 112.726 104.58 112.459 104.535H112.467Z" fill="#4CAF4F"/>
<path d="M113.334 104.915C113.326 104.918 113.318 104.918 113.311 104.915C113.089 104.791 112.674 104.305 112.736 104.057C112.745 104.018 112.767 103.983 112.799 103.958C112.83 103.933 112.869 103.919 112.91 103.919C112.949 103.913 112.989 103.917 113.028 103.928C113.066 103.94 113.101 103.96 113.131 103.986C113.375 104.196 113.39 104.839 113.39 104.871C113.392 104.881 113.39 104.891 113.385 104.899C113.38 104.908 113.373 104.914 113.364 104.918C113.354 104.92 113.343 104.919 113.334 104.915ZM112.939 104.016H112.918C112.851 104.016 112.842 104.054 112.839 104.069C112.803 104.213 113.066 104.582 113.284 104.756C113.283 104.507 113.206 104.264 113.063 104.06C113.029 104.03 112.984 104.015 112.939 104.016Z" fill="#4CAF4F"/>
<path d="M104.935 104.626C104.754 104.689 104.558 104.689 104.377 104.626C104.336 104.604 104.302 104.572 104.276 104.533C104.251 104.494 104.236 104.449 104.233 104.402C104.229 104.373 104.233 104.343 104.244 104.316C104.255 104.289 104.272 104.265 104.295 104.246C104.531 104.034 105.495 104.246 105.604 104.287C105.614 104.29 105.623 104.296 105.63 104.305C105.636 104.313 105.64 104.324 105.639 104.334C105.64 104.345 105.637 104.356 105.631 104.366C105.625 104.375 105.617 104.383 105.607 104.387C105.39 104.485 105.165 104.565 104.935 104.626ZM104.454 104.275C104.42 104.282 104.389 104.297 104.363 104.32C104.353 104.327 104.346 104.336 104.342 104.347C104.338 104.358 104.337 104.37 104.339 104.382C104.341 104.412 104.351 104.442 104.367 104.469C104.384 104.495 104.406 104.517 104.433 104.532C104.59 104.614 104.952 104.55 105.421 104.352C105.105 104.272 104.778 104.246 104.454 104.275Z" fill="#4CAF4F"/>
<path d="M105.598 104.387H105.574C105.279 104.334 104.69 103.995 104.672 103.742C104.672 103.683 104.699 103.6 104.84 103.553C104.888 103.536 104.939 103.529 104.989 103.532C105.04 103.535 105.09 103.548 105.135 103.571C105.453 103.727 105.621 104.293 105.63 104.32C105.632 104.329 105.632 104.338 105.63 104.347C105.627 104.355 105.622 104.363 105.616 104.37C105.611 104.377 105.605 104.383 105.598 104.387ZM104.899 103.642H104.87C104.778 103.674 104.778 103.712 104.778 103.724C104.778 103.877 105.206 104.157 105.504 104.252C105.435 104.015 105.29 103.808 105.091 103.662C105.032 103.632 104.963 103.625 104.899 103.642Z" fill="#4CAF4F"/>
<path d="M101.355 42.925L98.2803 44.3402L97.9236 45.2247L99.0587 45.9883C99.0587 45.9883 101.181 45.7583 101.786 44.3933L101.355 42.925Z" fill="#E58A7B"/>
<path d="M101.485 44.7618C101.416 44.171 101.221 43.6018 100.913 43.0931L101.4 42.7275C101.766 43.3137 101.999 43.9728 102.084 44.6586L101.485 44.7618Z" fill="#263238"/>
<path d="M102.01 43.3437C102.075 43.4459 102.107 43.5657 102.101 43.6868C102.096 43.8078 102.053 43.9242 101.979 44.0201C101.905 44.1161 101.803 44.1869 101.688 44.223C101.572 44.2591 101.448 44.2586 101.333 44.2217C101.217 44.1848 101.116 44.1133 101.043 44.0168C100.969 43.9203 100.928 43.8036 100.923 43.6825C100.918 43.5615 100.951 43.4419 101.017 43.3401C101.083 43.2383 101.178 43.1593 101.291 43.1137C101.417 43.0495 101.563 43.0376 101.697 43.0807C101.832 43.1238 101.944 43.2183 102.01 43.3437Z" fill="#263238"/>
<path d="M96.2018 45.4841L96.6116 45.8969L99.3712 44.7176L98.2803 44.3402L96.2018 45.4841Z" fill="#E58A7B"/>
<path opacity="0.2" d="M108.051 99.3724C108.069 99.3724 108.47 100.499 108.47 100.499L104.389 102.215L103.746 101.018L108.051 99.3724Z" fill="black"/>
<path opacity="0.2" d="M116.392 100.802C116.409 100.802 116.527 101.937 116.527 101.937H112.058L111.739 100.634L116.392 100.802Z" fill="black"/>
<path d="M115.702 31.1526C116.512 33.7677 113.343 37.344 113.343 37.344L108.965 35.5573C109.484 34.0458 110.082 32.5627 110.757 31.1143C112.102 28.2162 114.882 28.5139 115.702 31.1526Z" fill="#4CAF4F"/>
<path opacity="0.2" d="M115.702 31.1526C116.512 33.7677 113.343 37.344 113.343 37.344L108.965 35.5573C109.484 34.0458 110.082 32.5627 110.757 31.1143C112.102 28.2162 114.882 28.5139 115.702 31.1526Z" fill="black"/>
<path d="M72.1971 4.95142H70.3132V5.25509H72.1971V4.95142Z" fill="#4CAF4F"/>
<path d="M96.5846 16.9704L96.3566 22.0304L96.6599 22.0441L96.8879 16.9841L96.5846 16.9704Z" fill="#4CAF4F"/>
<path d="M95.9984 6.31351H61.2089L57.9717 78.7582H92.7612L95.9984 6.31351Z" fill="#4CAF4F"/>
<path opacity="0.56" d="M94.9606 7.31001H60.1712L56.934 79.7547H91.7234L94.9606 7.31001Z" fill="#FAFAFA"/>
<path opacity="0.07" d="M93.9228 8.30358H59.1334L55.8932 80.7483H90.6827L93.9228 8.30358Z" fill="#4CAF4F"/>
<path d="M89.9633 39.9001H60.2684L60.0208 45.4428H89.7157L89.9633 39.9001Z" fill="white"/>
<path d="M76.5989 35.8551H60.4483L60.3392 38.3346H76.4898L76.5989 35.8551Z" fill="#4CAF4F"/>
<path d="M89.2941 54.8596H59.5992L59.3515 60.4023H89.0464L89.2941 54.8596Z" fill="white"/>
<path opacity="0.47" d="M83.8486 67.8879H63.88L63.5823 74.5304H83.5508L83.8486 67.8879Z" fill="#4CAF4F"/>
<path d="M82.5131 75.5623H62.5445C62.5358 75.5645 62.5267 75.5645 62.518 75.5623C62.515 75.5537 62.515 75.5443 62.518 75.5357L62.8128 68.8904C62.8128 68.8858 62.8137 68.8814 62.8155 68.8772C62.8173 68.8731 62.82 68.8694 62.8233 68.8663C62.8266 68.8633 62.8306 68.8609 62.8348 68.8595C62.8391 68.858 62.8437 68.8575 62.8482 68.8579H82.8167C82.8204 68.8561 82.8244 68.8552 82.8285 68.8552C82.8326 68.8552 82.8367 68.8561 82.8403 68.8579C82.8424 68.8615 82.8435 68.8656 82.8435 68.8697C82.8435 68.8739 82.8424 68.8779 82.8403 68.8815L82.5514 75.5416C82.5478 75.5486 82.5423 75.5542 82.5354 75.5579C82.5286 75.5616 82.5208 75.5631 82.5131 75.5623ZM62.5799 75.4915H82.4777L82.7725 68.9169H62.8747L62.5799 75.4915Z" fill="white"/>
<path d="M73.1111 50.8146H59.779L59.67 53.297H72.999L73.1111 50.8146Z" fill="#4CAF4F"/>
<path d="M83.4683 21.9953C83.3921 23.6084 82.8184 25.1584 81.8261 26.4324C81.0915 27.3948 80.1462 28.176 79.0628 28.7162C77.9793 29.2565 76.7864 29.5412 75.5758 29.5487C74.5975 29.5562 73.628 29.3633 72.727 28.9819C71.8261 28.6005 71.0128 28.0386 70.3372 27.331C69.6616 26.6234 69.138 25.7849 68.7987 24.8673C68.4594 23.9496 68.3116 22.9722 68.3644 21.9953C68.468 19.9681 69.3423 18.057 70.8082 16.653C72.2742 15.249 74.2211 14.458 76.251 14.4419C77.23 14.4327 78.2006 14.6245 79.1026 15.0052C80.0046 15.386 80.819 15.9476 81.4954 16.6556C82.1718 17.3635 82.6959 18.2025 83.0352 19.121C83.3746 20.0394 83.5219 21.0177 83.4683 21.9953Z" fill="white"/>
<path d="M84.1788 16.0221C84.1596 16.451 84.0071 16.8633 83.7425 17.2014C83.5467 17.457 83.2951 17.6645 83.007 17.8081C82.7188 17.9517 82.4016 18.0275 82.0797 18.0299C81.7677 18.0318 81.4601 17.9573 81.1836 17.8129C80.9071 17.6684 80.6702 17.4585 80.4935 17.2014C80.2596 16.854 80.1438 16.4405 80.1633 16.0221C80.1918 15.4839 80.4245 14.9768 80.8141 14.6043C81.2036 14.2317 81.7205 14.0218 82.2595 14.0173C82.5195 14.0149 82.7773 14.0658 83.0169 14.1669C83.2565 14.2679 83.4728 14.4169 83.6527 14.6047C83.8325 14.7925 83.9719 15.0152 84.0624 15.259C84.1529 15.5027 84.1925 15.7625 84.1788 16.0221Z" fill="#4CAF4F"/>
<path d="M63.4673 42.6715C63.4531 42.909 63.3494 43.1324 63.1771 43.2965C63.0048 43.4607 62.7766 43.5534 62.5386 43.5559C62.4237 43.5573 62.3097 43.5351 62.2037 43.4907C62.0978 43.4462 62.002 43.3805 61.9224 43.2976C61.8429 43.2147 61.7811 43.1164 61.7411 43.0087C61.701 42.901 61.6835 42.7862 61.6895 42.6715C61.7023 42.4334 61.8056 42.2092 61.9782 42.0448C62.1509 41.8804 62.3798 41.7881 62.6182 41.787C62.733 41.786 62.8468 41.8086 62.9525 41.8531C63.0583 41.8977 63.1539 41.9634 63.2334 42.0462C63.3129 42.129 63.3746 42.2272 63.4149 42.3347C63.4551 42.4422 63.4729 42.5568 63.4673 42.6715Z" fill="#263238"/>
<path d="M67.4416 42.6715C67.4281 42.9093 67.3246 43.1331 67.1521 43.2973C66.9796 43.4616 66.7511 43.5541 66.5129 43.5559C66.3982 43.5569 66.2846 43.5344 66.1789 43.4898C66.0733 43.4452 65.9779 43.3794 65.8987 43.2966C65.8194 43.2137 65.7579 43.1155 65.718 43.008C65.6781 42.9005 65.6607 42.786 65.6667 42.6715C65.6795 42.4339 65.7823 42.2101 65.9544 42.0458C66.1264 41.8815 66.3546 41.7889 66.5925 41.787C66.7074 41.7856 66.8214 41.8078 66.9273 41.8523C67.0333 41.8967 67.1291 41.9624 67.2086 42.0453C67.2882 42.1282 67.35 42.2265 67.39 42.3342C67.4301 42.4419 67.4476 42.5567 67.4416 42.6715Z" fill="#263238"/>
<path d="M71.4188 42.6715C71.4053 42.9093 71.3018 43.1331 71.1293 43.2973C70.9568 43.4616 70.7283 43.5541 70.4901 43.5559C70.3753 43.5569 70.2615 43.5344 70.1557 43.4898C70.0499 43.4452 69.9544 43.3795 69.8749 43.2967C69.7954 43.2139 69.7336 43.1157 69.6934 43.0082C69.6532 42.9007 69.6353 42.7861 69.641 42.6715C69.6544 42.4336 69.7579 42.2099 69.9304 42.0456C70.1029 41.8813 70.3315 41.7888 70.5697 41.787C70.6846 41.7856 70.7985 41.8078 70.9045 41.8523C71.0105 41.8967 71.1062 41.9624 71.1858 42.0453C71.2654 42.1282 71.3271 42.2265 71.3672 42.3342C71.4073 42.4419 71.4248 42.5567 71.4188 42.6715Z" fill="#263238"/>
<path d="M62.798 57.6309C62.7839 57.8685 62.6802 58.0919 62.5078 58.256C62.3355 58.4202 62.1073 58.5129 61.8693 58.5154C61.7546 58.5164 61.6408 58.4939 61.535 58.4493C61.4292 58.4047 61.3336 58.339 61.2542 58.2562C61.1747 58.1734 61.1129 58.0752 61.0727 57.9677C61.0325 57.8602 61.0146 57.7456 61.0202 57.6309C61.0337 57.3931 61.1372 57.1693 61.3097 57.0051C61.4822 56.8408 61.7107 56.7483 61.9489 56.7465C62.0637 56.7455 62.1775 56.768 62.2833 56.8126C62.3891 56.8572 62.4846 56.9229 62.5641 57.0057C62.6436 57.0885 62.7054 57.1867 62.7456 57.2942C62.7858 57.4017 62.8037 57.5163 62.798 57.6309Z" fill="#263238"/>
<path d="M66.7723 57.6309C66.7589 57.8683 66.6558 58.0916 66.4839 58.2558C66.3121 58.42 66.0842 58.5128 65.8466 58.5154C65.7316 58.5168 65.6177 58.4946 65.5117 58.4502C65.4057 58.4057 65.31 58.34 65.2304 58.2571C65.1508 58.1742 65.0891 58.0759 65.049 57.9682C65.0089 57.8605 64.9914 57.7457 64.9975 57.6309C65.0109 57.3931 65.1144 57.1693 65.2869 57.0051C65.4594 56.8408 65.688 56.7483 65.9262 56.7465C66.0408 56.7455 66.1545 56.768 66.2601 56.8126C66.3657 56.8572 66.4611 56.923 66.5404 57.0058C66.6196 57.0887 66.6811 57.1869 66.721 57.2944C66.7609 57.4019 66.7783 57.5164 66.7723 57.6309Z" fill="#263238"/>
<path d="M70.7583 57.6309C70.7449 57.8688 70.6414 58.0925 70.4689 58.2568C70.2964 58.4211 70.0678 58.5136 69.8296 58.5154C69.715 58.5159 69.6014 58.4931 69.4958 58.4484C69.3902 58.4037 69.2948 58.338 69.2154 58.2553C69.136 58.1725 69.0742 58.0745 69.0339 57.9672C68.9935 57.8599 68.9753 57.7455 68.9805 57.6309C68.9947 57.3934 69.0984 57.17 69.2708 57.0059C69.4431 56.8417 69.6713 56.749 69.9092 56.7465C70.0242 56.7451 70.1381 56.7673 70.2441 56.8117C70.3501 56.8562 70.4458 56.9219 70.5254 57.0048C70.605 57.0877 70.6667 57.186 70.7068 57.2937C70.7469 57.4014 70.7644 57.5162 70.7583 57.6309Z" fill="#263238"/>
<path d="M74.7267 57.6309C74.7126 57.8685 74.6089 58.0919 74.4365 58.256C74.2642 58.4202 74.036 58.5129 73.798 58.5154C73.6834 58.5159 73.5698 58.4931 73.4642 58.4484C73.3586 58.4037 73.2632 58.338 73.1838 58.2553C73.1044 58.1725 73.0426 58.0745 73.0023 57.9672C72.9619 57.8599 72.9437 57.7455 72.9489 57.6309C72.9631 57.3934 73.0668 57.17 73.2391 57.0059C73.4115 56.8417 73.6396 56.749 73.8776 56.7465C73.9924 56.7455 74.1062 56.768 74.212 56.8126C74.3178 56.8572 74.4133 56.9229 74.4928 57.0057C74.5723 57.0885 74.6341 57.1867 74.6743 57.2942C74.7145 57.4017 74.7324 57.5163 74.7267 57.6309Z" fill="#263238"/>
<path d="M78.7187 57.6309C78.7045 57.8685 78.6008 58.0919 78.4284 58.256C78.2561 58.4202 78.0279 58.5129 77.79 58.5154C77.675 58.5168 77.5611 58.4946 77.4551 58.4502C77.3491 58.4057 77.2534 58.34 77.1738 58.2571C77.0942 58.1742 77.0325 58.0759 76.9924 57.9682C76.9523 57.8605 76.9348 57.7457 76.9408 57.6309C76.9543 57.3931 77.0578 57.1693 77.2303 57.0051C77.4028 56.8408 77.6314 56.7483 77.8696 56.7465C77.9843 56.7455 78.0981 56.768 78.2039 56.8126C78.3097 56.8572 78.4052 56.9229 78.4847 57.0057C78.5642 57.0885 78.626 57.1867 78.6662 57.2942C78.7064 57.4017 78.7243 57.5163 78.7187 57.6309Z" fill="#263238"/>
<path d="M78.1153 21.6019C79.3493 20.3952 79.4148 18.4609 78.2615 17.2816C77.1083 16.1023 75.1731 16.1246 73.939 17.3313C72.705 18.5381 72.6396 20.4723 73.7928 21.6516C74.946 22.8309 76.8813 22.8086 78.1153 21.6019Z" fill="#4CAF4F"/>
<path d="M81.8261 26.4324C81.0915 27.3948 80.1462 28.176 79.0628 28.7162C77.9793 29.2565 76.7864 29.5412 75.5758 29.5487C74.4018 29.5587 73.2434 29.2796 72.2028 28.7362C71.1621 28.1927 70.2712 27.4015 69.6085 26.4324C71.0414 25.0055 73.3086 24.0738 75.8205 24.0738C78.3324 24.0738 80.52 25.0055 81.8261 26.4324Z" fill="#4CAF4F"/>
<path opacity="0.1" d="M78.1153 21.6019C79.3493 20.3952 79.4148 18.4609 78.2615 17.2816C77.1083 16.1023 75.1731 16.1246 73.939 17.3313C72.705 18.5381 72.6396 20.4723 73.7928 21.6516C74.946 22.8309 76.8813 22.8086 78.1153 21.6019Z" fill="white"/>
<path opacity="0.1" d="M81.8261 26.4324C81.0915 27.3948 80.1462 28.176 79.0628 28.7162C77.9793 29.2565 76.7864 29.5412 75.5758 29.5487C74.4018 29.5587 73.2434 29.2796 72.2028 28.7362C71.1621 28.1927 70.2712 27.4015 69.6085 26.4324C71.0414 25.0055 73.3086 24.0738 75.8205 24.0738C78.3324 24.0738 80.52 25.0055 81.8261 26.4324Z" fill="white"/>
<path d="M38.4483 46.7784C38.1682 47.3916 37.8734 48.0668 37.6169 48.7213C37.3604 49.3758 37.098 50.051 36.871 50.7232C36.4075 52.0479 36.0544 53.4087 35.8155 54.7918L35.7507 55.2251C35.7445 55.2995 35.7515 55.3743 35.7713 55.4463C35.8409 55.6906 35.9505 55.9217 36.0956 56.1303C36.4742 56.67 36.9134 57.1646 37.4046 57.6044C37.9225 58.0861 38.4658 58.5398 39.0321 58.9635C39.5981 59.3999 40.1937 59.8244 40.7804 60.2254L40.2291 61.2602C38.8281 60.6498 37.4984 59.8876 36.2637 58.9871C35.6049 58.5067 35.0104 57.9439 34.4947 57.3125C34.189 56.9366 33.9506 56.5107 33.7901 56.0536C33.6967 55.768 33.649 55.4696 33.6485 55.1691C33.6485 55.0984 33.6485 54.9952 33.6485 54.9451V54.8006L33.678 54.5058C33.847 52.9697 34.17 51.4546 34.6421 49.9831C34.8721 49.2579 35.1168 48.5355 35.3969 47.8309C35.6769 47.1263 35.9659 46.4364 36.3226 45.72L38.4483 46.7784Z" fill="#E58A7B"/>
<path d="M40.3647 60.0426L42.4491 58.9871L41.9096 61.275C41.9096 61.275 40.4797 61.6759 39.8163 60.9802L40.3647 60.0426Z" fill="#E58A7B"/>
<path d="M44.3566 59.3616L43.8024 61.2544L41.9096 61.275L42.4491 58.9871L44.3566 59.3616Z" fill="#E58A7B"/>
<path d="M47.299 35.7401C47.4105 36.1487 47.5657 36.5441 47.7619 36.9194C47.7046 36.9844 47.6307 37.0327 47.5482 37.0592C47.4657 37.0856 47.3776 37.0893 47.2931 37.0698L47.299 35.7401Z" fill="#DF5753"/>
<path d="M47.2371 35.7578C47.3592 35.7578 47.4582 35.606 47.4582 35.4187C47.4582 35.2315 47.3592 35.0797 47.2371 35.0797C47.115 35.0797 47.016 35.2315 47.016 35.4187C47.016 35.606 47.115 35.7578 47.2371 35.7578Z" fill="#263238"/>
<path d="M47.1722 35.0915L47.6204 34.9647C47.6204 34.9647 47.4022 35.3126 47.1722 35.0915Z" fill="#263238"/>
<path d="M41.5411 37.9041C41.8094 39.2751 42.0776 41.7899 41.1165 42.7068C41.1165 42.7068 41.4939 44.0984 44.0441 44.0984C46.8479 44.0984 45.3826 42.7068 45.3826 42.7068C43.8525 42.3412 43.8908 41.2062 44.1591 40.1389L41.5411 37.9041Z" fill="#E58A7B"/>
<path d="M40.7951 34.779C40.9367 37.0698 40.9484 38.0427 42.1042 39.219C43.8466 40.988 46.6297 40.3158 47.1752 38.0397C47.6675 35.976 47.355 32.5796 45.1114 31.6685C44.6189 31.4657 44.0828 31.3918 43.5538 31.4539C43.0248 31.5159 42.5204 31.712 42.0882 32.0234C41.6561 32.3348 41.3106 32.7513 41.0843 33.2335C40.858 33.7156 40.7585 34.2476 40.7951 34.779Z" fill="#E58A7B"/>
<path d="M41.0222 32.2022C39.8723 32.6208 38.3392 32.3083 38.9407 35.8551C39.5775 39.6112 38.5987 40.8465 38.5987 40.8465C38.5987 40.8465 42.9592 41.7752 47.411 40.7905C47.411 40.7905 46.0519 38.4142 46.4322 36.6629C46.9187 34.4517 46.5354 33.635 46.5354 33.635C46.5354 33.635 42.6378 31.6125 41.0222 32.2022Z" fill="#263238"/>
<path d="M45.8868 35.973C45.888 36.4086 46.0127 36.8349 46.2465 37.2024C46.559 37.6801 46.9275 37.4973 47.0189 36.9902C47.1015 36.545 47.0396 35.7578 46.6415 35.4512C46.2435 35.1445 45.8927 35.4453 45.8868 35.973Z" fill="#E58A7B"/>
<path d="M40.0227 32.5884C39.6925 31.6597 41.2669 30.2298 44.5984 30.8194C47.9299 31.4091 48.0744 34.1834 48.0744 34.1834L47.4022 33.3815L47.4317 34.2247L44.0087 34.8822L40.0227 32.5884Z" fill="#263238"/>
<path d="M40.3057 42.8631C40.2861 42.7285 40.3198 42.5915 40.3996 42.4814C40.4795 42.3712 40.5992 42.2966 40.7332 42.2734C41.771 42.1024 44.1296 41.7546 45.3148 41.9197C46.1993 42.0435 46.4293 42.5565 46.4676 42.9781C46.4736 43.0519 46.4637 43.1262 46.4387 43.1958C46.4136 43.2655 46.3739 43.329 46.3222 43.3821C46.2705 43.4352 46.2081 43.4766 46.1391 43.5035C46.0701 43.5304 45.9961 43.5423 45.9222 43.5382L40.7981 43.3083C40.6773 43.3022 40.5623 43.2545 40.4726 43.1734C40.3829 43.0923 40.3239 42.9827 40.3057 42.8631Z" fill="#4CAF4F"/>
<path opacity="0.6" d="M40.3057 42.8631C40.2861 42.7285 40.3198 42.5915 40.3996 42.4814C40.4795 42.3712 40.5992 42.2966 40.7332 42.2734C41.771 42.1024 44.1296 41.7546 45.3148 41.9197C46.1993 42.0435 46.4293 42.5565 46.4676 42.9781C46.4736 43.0519 46.4637 43.1262 46.4387 43.1958C46.4136 43.2655 46.3739 43.329 46.3222 43.3821C46.2705 43.4352 46.2081 43.4766 46.1391 43.5035C46.0701 43.5304 45.9961 43.5423 45.9222 43.5382L40.7981 43.3083C40.6773 43.3022 40.5623 43.2545 40.4726 43.1734C40.3829 43.0923 40.3239 42.9827 40.3057 42.8631Z" fill="black"/>
<path d="M43.2687 94.3692L45.1704 95.69L48.3515 91.3767L46.4499 90.0589L43.2687 94.3692Z" fill="#E58A7B"/>
<path d="M38.8345 94.2837L40.8423 95.4276L43.6579 90.8667L41.6501 89.7228L38.8345 94.2837Z" fill="#E58A7B"/>
<path d="M48.3486 91.3767L46.7094 93.5997L44.8077 92.2819L46.447 90.0589L48.3486 91.3767Z" fill="#CF6F64"/>
<path d="M41.6472 89.7228L43.6579 90.8696L42.2074 93.2194L40.1967 92.0725L41.6472 89.7228Z" fill="#CF6F64"/>
<path d="M44.8726 57.2624C44.8726 57.2624 52.2963 66.6172 50.9018 75.5652C49.7785 82.7914 43.2628 92.5767 43.2628 92.5767L40.1996 91.0554C42.3588 86.7289 44.2013 82.2515 45.7128 77.6585C46.179 76.2325 46.315 74.7193 46.1107 73.233C45.9064 71.7468 45.3671 70.3264 44.5335 69.079C40.7716 63.5864 34.7453 66.856 38.7992 57.2624H44.8726Z" fill="#4CAF4F"/>
<path opacity="0.6" d="M44.8726 57.2624C44.8726 57.2624 52.2963 66.6172 50.9018 75.5652C49.7785 82.7914 43.2628 92.5767 43.2628 92.5767L40.1996 91.0554C42.3588 86.7289 44.2013 82.2515 45.7128 77.6585C46.179 76.2325 46.315 74.7193 46.1107 73.233C45.9064 71.7468 45.3671 70.3264 44.5335 69.079C40.7716 63.5864 34.7453 66.856 38.7992 57.2624H44.8726Z" fill="black"/>
<path opacity="0.4" d="M48.5137 63.271L47.4346 62.1978C47.4346 62.2833 49.5249 75.1878 50.1117 78.8142C50.4579 77.7548 50.723 76.6707 50.9047 75.5711C51.5946 71.1811 50.1529 66.6968 48.5137 63.271Z" fill="black"/>
<path d="M48.1864 57.2624C48.1864 57.2624 57.1256 69.0201 57.3791 76.0694C57.5884 81.9659 47.6498 93.3904 47.6498 93.3904L44.7605 91.5212C44.7605 91.5212 50.5775 83.4076 52.0428 76.7799C51.4767 70.2112 39.5067 57.2624 39.5067 57.2624H48.1864Z" fill="#4CAF4F"/>
<path opacity="0.6" d="M48.1864 57.2624C48.1864 57.2624 57.1256 69.0201 57.3791 76.0694C57.5884 81.9659 47.6498 93.3904 47.6498 93.3904L44.7605 91.5212C44.7605 91.5212 50.5775 83.4076 52.0428 76.7799C51.4767 70.2112 39.5067 57.2624 39.5067 57.2624H48.1864Z" fill="black"/>
<path d="M37.1275 43.2316C36.1723 43.4586 35.2554 46.9317 35.2554 46.9317L38.9908 49.4259C38.9908 49.4259 40.235 46.6781 39.7986 45.4752C39.3476 44.2222 38.3275 42.9456 37.1275 43.2316Z" fill="#4CAF4F"/>
<path opacity="0.2" d="M37.8587 45.4694L37.5992 48.4972L38.9879 49.4289C39.3713 48.5657 39.6552 47.6616 39.834 46.7342L37.8587 45.4694Z" fill="black"/>
<path d="M49.292 43.2994C49.292 43.2994 50.3947 43.6857 48.1864 57.2595H38.7933C38.9525 53.4267 38.9554 51.0681 37.1275 43.2316C38.4427 42.9606 39.7759 42.7852 41.1165 42.7068C42.5367 42.605 43.9624 42.605 45.3826 42.7068C47.2164 42.8749 49.292 43.2994 49.292 43.2994Z" fill="#4CAF4F"/>
<path d="M50.2472 45.4694C50.4595 46.059 50.6836 46.6929 50.9195 47.3032C51.1553 47.9135 51.3794 48.5414 51.6182 49.1606L52.3405 51.0121L52.5233 51.475L52.6176 51.7049L52.6619 51.8199C52.6619 51.8405 52.6619 51.8405 52.6619 51.8376C52.608 51.7617 52.5374 51.6991 52.4555 51.6548C52.3389 51.5862 52.2074 51.5467 52.0722 51.5398C51.9599 51.5363 51.8482 51.5575 51.745 51.6017C51.6093 51.6637 51.6093 51.6902 51.6123 51.6872C51.6368 51.6676 51.6586 51.6448 51.6772 51.6194C51.8404 51.4052 51.9816 51.175 52.0988 50.9325C52.2373 50.6612 52.37 50.3723 52.5027 50.0804C52.7621 49.4908 53.0009 48.8805 53.2397 48.2643C53.4785 47.6481 53.7056 47.026 53.9267 46.3981L54.5989 44.5171L55.734 44.8119C55.5099 46.1563 55.221 47.4653 54.8731 48.7979C54.705 49.4613 54.5075 50.1188 54.2834 50.7821C54.1714 51.1153 54.0476 51.4455 53.906 51.7845C53.7585 52.1525 53.5769 52.5059 53.3636 52.84C53.2851 52.9525 53.1984 53.0589 53.1041 53.1584C52.9536 53.321 52.7708 53.4505 52.5675 53.5387C52.3871 53.6162 52.1917 53.6524 51.9956 53.6449C51.7758 53.6367 51.5617 53.5728 51.3735 53.4591C51.1514 53.3205 50.967 53.1291 50.8369 52.9019C50.7927 52.8253 50.7543 52.7486 50.7278 52.6926L50.6718 52.5806L50.5598 52.3506L50.3357 51.8936C50.0409 51.2804 49.746 50.6612 49.4895 50.0392C49.233 49.4171 48.9618 48.7861 48.7083 48.1523C48.4547 47.5184 48.2277 46.8845 48.0125 46.2005L50.2472 45.4694Z" fill="#E58A7B"/>
<path d="M49.292 43.2994C50.4212 43.5677 51.6919 46.9052 51.6919 46.9052L48.3338 49.762C48.3338 49.762 46.161 46.1239 46.6003 44.9239C47.0572 43.6739 47.8179 42.9486 49.292 43.2994Z" fill="#4CAF4F"/>
<path d="M55.1325 43.4616L56.3118 42.4769L57.1315 43.7535L56.5271 44.8178C56.5271 44.8178 55.5659 45.7023 54.7168 45.2512C54.5821 44.9483 54.5497 44.6097 54.6248 44.2867C54.6998 43.9638 54.878 43.6741 55.1325 43.4616Z" fill="#E58A7B"/>
<path d="M58.4405 42.4798L58.352 42.8012L56.4858 43.1137L56.303 42.4769L58.4405 42.4798Z" fill="#E58A7B"/>
<path d="M47.8798 93.5407L44.5129 91.3649L45.1173 90.3153L48.8999 92.6415L47.8798 93.5407Z" fill="#4CAF4F"/>
<path d="M42.1602 95.2743C41.8648 95.2382 41.5809 95.1376 41.3288 94.9795C41.3184 94.9759 41.3094 94.9691 41.303 94.9601C41.2966 94.9512 41.2932 94.9404 41.2932 94.9294C41.2932 94.9184 41.2966 94.9076 41.303 94.8986C41.3094 94.8897 41.3184 94.8829 41.3288 94.8793C41.4202 94.8498 42.2133 94.6051 42.4432 94.7938C42.4691 94.8153 42.4887 94.8433 42.5001 94.8749C42.5115 94.9065 42.5143 94.9406 42.5081 94.9736C42.504 95.0267 42.4864 95.0778 42.457 95.1222C42.4276 95.1666 42.3873 95.2027 42.34 95.2272C42.2848 95.2573 42.2231 95.2735 42.1602 95.2743ZM41.4968 94.95C41.8654 95.1387 42.1602 95.2065 42.3017 95.1358C42.3325 95.1187 42.3585 95.094 42.377 95.0641C42.3956 95.0342 42.4062 95 42.4078 94.9648C42.4078 94.9176 42.4078 94.897 42.3813 94.8852C42.2575 94.7849 41.8152 94.8616 41.4909 94.95H41.4968Z" fill="#263238"/>
<path d="M41.3494 95.0001C41.3338 94.9999 41.319 94.9936 41.3081 94.9825C41.3037 94.9743 41.3014 94.9652 41.3014 94.9559C41.3014 94.9467 41.3037 94.9375 41.3081 94.9294C41.3081 94.9029 41.4998 94.2631 41.8005 94.1186C41.8389 94.1011 41.8806 94.092 41.9228 94.092C41.9651 94.092 42.0068 94.1011 42.0452 94.1186C42.0866 94.1317 42.1224 94.1582 42.147 94.194C42.1716 94.2298 42.1835 94.2728 42.1808 94.3161C42.1602 94.5815 41.6206 94.9471 41.373 95.009L41.3494 95.0001ZM41.9214 94.1953C41.8927 94.1962 41.8645 94.2032 41.8388 94.2159C41.656 94.3043 41.5057 94.6493 41.4319 94.8586C41.6914 94.7495 42.0481 94.4606 42.0599 94.2985C42.0599 94.2719 42.0599 94.2395 41.9921 94.21C41.9701 94.1981 41.9461 94.1902 41.9214 94.1864V94.1953Z" fill="#263238"/>
<path d="M46.3674 96.548C46.0342 96.548 45.5713 96.1205 45.3178 95.8581C45.3113 95.8491 45.3078 95.8382 45.3078 95.8271C45.3078 95.816 45.3113 95.8052 45.3178 95.7962C45.3236 95.7867 45.3319 95.7789 45.3417 95.7737C45.3516 95.7685 45.3627 95.7661 45.3738 95.7667C45.4917 95.7667 46.5148 95.92 46.6592 96.2089C46.6745 96.2348 46.6826 96.2644 46.6826 96.2944C46.6826 96.3245 46.6745 96.354 46.6592 96.3799C46.6376 96.4249 46.6048 96.4637 46.5641 96.4926C46.5234 96.5214 46.476 96.5395 46.4263 96.545L46.3674 96.548ZM45.5124 95.8994C45.8838 96.259 46.2111 96.4595 46.3968 96.4359C46.4294 96.4317 46.4604 96.4195 46.4871 96.4005C46.5138 96.3815 46.5355 96.3562 46.5502 96.3269C46.5567 96.3168 46.5603 96.305 46.5603 96.293C46.5603 96.2809 46.5567 96.2691 46.5502 96.259C46.4735 96.0998 45.9281 95.9642 45.5124 95.8994Z" fill="#263238"/>
<path d="M45.5448 95.8846C45.4786 95.8865 45.4124 95.8816 45.3473 95.8699C45.3382 95.8685 45.3296 95.8648 45.3223 95.8591C45.3151 95.8534 45.3095 95.846 45.306 95.8374C45.3016 95.8288 45.2993 95.8192 45.2993 95.8094C45.2993 95.7997 45.3016 95.7901 45.306 95.7814C45.3237 95.7608 45.7217 95.2802 46.0991 95.2478C46.2059 95.2395 46.3117 95.2733 46.3939 95.3421C46.5089 95.4424 46.503 95.5308 46.4735 95.5868C46.3998 95.7873 45.8898 95.8846 45.5448 95.8846ZM45.4682 95.7755C45.7984 95.7932 46.3261 95.6841 46.3939 95.5397C46.3939 95.5397 46.4175 95.4925 46.3408 95.4276C46.3103 95.4011 46.2747 95.3811 46.2362 95.369C46.1976 95.3568 46.157 95.3527 46.1168 95.3569C45.8626 95.4278 45.6362 95.575 45.4682 95.7785V95.7755Z" fill="#263238"/>
<path d="M41.429 94.6817L38.9289 93.9742C38.8858 93.9611 38.8394 93.9644 38.7986 93.9835C38.7578 94.0025 38.7254 94.0359 38.7078 94.0773L37.8646 95.9731C37.8448 96.0216 37.8355 96.0738 37.8373 96.1262C37.8391 96.1786 37.852 96.2301 37.8751 96.2771C37.8982 96.3242 37.931 96.3658 37.9714 96.3993C38.0118 96.4328 38.0587 96.4573 38.1093 96.4713C38.9938 96.7013 39.4183 96.7662 40.518 97.0816C41.1961 97.2703 42.1631 97.6212 43.0977 97.8865C44.0323 98.1518 44.3448 97.2408 43.9822 97.0462C42.343 96.1795 42.2133 95.5721 41.7651 94.9235C41.6849 94.806 41.5659 94.7205 41.429 94.6817Z" fill="#4CAF4F"/>
<path d="M45.3856 95.5131L43.251 94.039C43.2148 94.0126 43.1702 94.0005 43.1257 94.0048C43.0811 94.0092 43.0397 94.0297 43.0093 94.0626L41.5941 95.5839C41.5596 95.6232 41.5339 95.6694 41.5187 95.7194C41.5034 95.7695 41.499 95.8222 41.5057 95.8741C41.5124 95.9259 41.53 95.9758 41.5575 96.0203C41.5849 96.0648 41.6215 96.103 41.6649 96.1323C42.4167 96.6364 42.8059 96.8399 43.7464 97.4914C44.336 97.8924 45.477 98.7828 46.273 99.337C47.069 99.8913 47.6616 99.1306 47.3786 98.8299C46.1109 97.4767 45.8337 96.6276 45.6244 95.8581C45.5881 95.7185 45.5035 95.5963 45.3856 95.5131Z" fill="#4CAF4F"/>
<path d="M43.6549 92.7713L39.8075 90.8578L40.2055 89.8142L44.3154 91.8308L43.6549 92.7713Z" fill="#4CAF4F"/>
<path d="M38.6517 56.7081L38.3274 57.5572C38.295 57.6221 38.3717 57.6899 38.4807 57.6899H48.2336C48.3191 57.6899 48.3898 57.6486 48.3957 57.5956L48.4783 56.7524C48.4783 56.6963 48.4105 56.6462 48.3191 56.6462H38.8051C38.7764 56.6435 38.7475 56.6477 38.7209 56.6585C38.6942 56.6693 38.6705 56.6863 38.6517 56.7081Z" fill="#4CAF4F"/>
<path opacity="0.4" d="M38.6517 56.7081L38.3274 57.5572C38.295 57.6221 38.3717 57.6899 38.4807 57.6899H48.2336C48.3191 57.6899 48.3898 57.6486 48.3957 57.5956L48.4783 56.7524C48.4783 56.6963 48.4105 56.6462 48.3191 56.6462H38.8051C38.7764 56.6435 38.7475 56.6477 38.7209 56.6585C38.6942 56.6693 38.6705 56.6863 38.6517 56.7081Z" fill="white"/>
<path d="M40.1878 57.7724H39.9313C39.8812 57.7724 39.8429 57.7459 39.8458 57.7135L39.9667 56.6197C39.9667 56.5902 40.0139 56.5637 40.064 56.5637H40.3205C40.3706 56.5637 40.4089 56.5902 40.406 56.6197L40.2851 57.7135C40.2821 57.7459 40.2379 57.7724 40.1878 57.7724Z" fill="#4CAF4F"/>
<path d="M46.2023 57.7724H45.9487C45.8986 57.7724 45.8603 57.7459 45.8632 57.7135L45.9811 56.6197C45.9811 56.5902 46.0313 56.5637 46.0814 56.5637H46.3349C46.3851 56.5637 46.4263 56.5902 46.4204 56.6197L46.3025 57.7135C46.2878 57.7459 46.2553 57.7724 46.2023 57.7724Z" fill="#4CAF4F"/>
<g style="mix-blend-mode:multiply">
<path d="M39.9637 107.701C44.3259 107.701 47.8621 107.445 47.8621 107.129C47.8621 106.813 44.3259 106.557 39.9637 106.557C35.6016 106.557 32.0653 106.813 32.0653 107.129C32.0653 107.445 35.6016 107.701 39.9637 107.701Z" fill="#F5F5F5"/>
</g>
<path d="M44.7753 106.321C43.3778 105.915 41.827 105.393 40.8895 104.847C40.863 104.83 40.8335 104.821 40.8069 104.806V98.4791H43.6343C43.849 98.4664 44.0506 98.3722 44.1981 98.2157C44.3456 98.0592 44.4277 97.8524 44.4277 97.6374C44.4277 97.4224 44.3456 97.2155 44.1981 97.059C44.0506 96.9026 43.849 96.8083 43.6343 96.7956H40.8217V67.9557H39.1235V96.7956H36.3138C36.1991 96.7888 36.0842 96.8056 35.9761 96.8448C35.8681 96.884 35.7692 96.9449 35.6856 97.0238C35.602 97.1026 35.5353 97.1977 35.4898 97.3032C35.4442 97.4087 35.4208 97.5224 35.4208 97.6374C35.4208 97.7523 35.4442 97.866 35.4898 97.9715C35.5353 98.077 35.602 98.1721 35.6856 98.251C35.7692 98.3298 35.8681 98.3907 35.9761 98.4299C36.0842 98.4692 36.1991 98.4859 36.3138 98.4791H39.1235V104.797C39.097 104.797 39.0704 104.821 39.0439 104.838C38.0916 105.393 36.5526 105.915 35.1551 106.313C35.0607 106.341 34.9797 106.403 34.9266 106.486C34.8736 106.569 34.8521 106.668 34.866 106.766C34.8798 106.864 34.9282 106.953 35.0024 107.018C35.0765 107.083 35.1715 107.119 35.2701 107.12H44.6603C44.7546 107.114 44.8437 107.075 44.913 107.011C44.9822 106.947 45.0274 106.861 45.0408 106.767C45.0543 106.674 45.0352 106.579 44.9869 106.497C44.9386 106.416 44.8639 106.354 44.7753 106.321Z" fill="#E0E0E0"/>
<path d="M45.2087 65.0193H34.7247C33.8812 65.0193 33.1975 65.703 33.1975 66.5465V69.6628C33.1975 70.5062 33.8812 71.19 34.7247 71.19H45.2087C46.0521 71.19 46.7359 70.5062 46.7359 69.6628V66.5465C46.7359 65.703 46.0521 65.0193 45.2087 65.0193Z" fill="#4CAF4F"/>
<path d="M34.6274 71.1929V71.7295C34.6274 72.1718 35.1079 72.5314 35.6976 72.5314H44.2475C44.8372 72.5314 45.3178 72.1718 45.3178 71.7295V71.1929H34.6274Z" fill="#4CAF4F"/>
<path opacity="0.3" d="M34.6274 71.1929V71.7295C34.6274 72.1718 35.1079 72.5314 35.6976 72.5314H44.2475C44.8372 72.5314 45.3178 72.1718 45.3178 71.7295V71.1929H34.6274Z" fill="white"/>
</svg>
