<svg width="32" height="32" viewBox="0 0 32 32" fill="none" xmlns="http://www.w3.org/2000/svg">
<circle cx="16" cy="10.6667" r="3.5" stroke="#222222" stroke-linecap="round"/>
<path d="M18.2129 8.58332C18.4931 8.09802 18.9109 7.7067 19.4135 7.45885C19.9161 7.211 20.4809 7.11775 21.0365 7.1909C21.5921 7.26404 22.1135 7.50029 22.5348 7.86978C22.9561 8.23926 23.2584 8.72538 23.4034 9.26667C23.5485 9.80796 23.5297 10.3801 23.3496 10.9107C23.1695 11.4414 22.836 11.9067 22.3915 12.2478C21.9469 12.589 21.4111 12.7906 20.852 12.8273C20.2928 12.8639 19.7353 12.7339 19.25 12.4537" stroke="#222222"/>
<path d="M13.7871 8.58332C13.5069 8.09802 13.0891 7.7067 12.5865 7.45885C12.0839 7.211 11.5191 7.11775 10.9635 7.1909C10.4079 7.26404 9.88652 7.50029 9.46521 7.86978C9.04389 8.23926 8.7416 8.72538 8.59656 9.26667C8.45153 9.80796 8.47026 10.3801 8.65038 10.9107C8.83051 11.4414 9.16395 11.9067 9.60853 12.2478C10.0531 12.589 10.5889 12.7906 11.148 12.8273C11.7072 12.8639 12.2647 12.7339 12.75 12.4537" stroke="#222222"/>
<path d="M16 16.6667C21.7161 16.6667 22.9767 21.5271 23.2547 23.671C23.3257 24.2187 22.8856 24.6667 22.3334 24.6667H9.66669C9.1144 24.6667 8.67432 24.2187 8.74535 23.671C9.02337 21.5271 10.284 16.6667 16 16.6667Z" stroke="#222222" stroke-linecap="round"/>
<path d="M25.813 20.913L25.3247 21.0206L25.813 20.913ZM17.4495 16.7812L17.0802 16.4441L16.4598 17.1236L17.3675 17.2745L17.4495 16.7812ZM22.9084 22L22.4281 22.139L22.5326 22.5H22.9084V22ZM20.6667 15.8333C22.1915 15.8333 23.2368 16.6313 23.9743 17.6989C24.7211 18.7799 25.1222 20.1018 25.3247 21.0206L26.3013 20.8054C26.0873 19.8348 25.6512 18.3669 24.797 17.1305C23.9335 15.8805 22.6139 14.8333 20.6667 14.8333V15.8333ZM17.8187 17.1184C18.5118 16.3593 19.4263 15.8333 20.6667 15.8333V14.8333C19.0983 14.8333 17.9286 15.5149 17.0802 16.4441L17.8187 17.1184ZM17.3675 17.2745C20.5264 17.7994 21.8572 20.1656 22.4281 22.139L23.3887 21.8611C22.7687 19.7181 21.2397 16.9042 17.5314 16.288L17.3675 17.2745ZM24.895 21.5H22.9084V22.5H24.895V21.5ZM25.3247 21.0206C25.3758 21.2526 25.2026 21.5 24.895 21.5V22.5C25.7706 22.5 26.5048 21.729 26.3013 20.8054L25.3247 21.0206Z" fill="#222222"/>
<path d="M14.5506 16.7812L14.6325 17.2745L15.5402 17.1236L14.9198 16.4441L14.5506 16.7812ZM6.18702 20.913L5.69874 20.8054H5.69874L6.18702 20.913ZM9.09162 22V22.5H9.46747L9.57192 22.139L9.09162 22ZM11.3334 15.8333C12.5738 15.8333 13.4883 16.3593 14.1813 17.1184L14.9198 16.4441C14.0714 15.5149 12.9017 14.8333 11.3334 14.8333V15.8333ZM6.6753 21.0206C6.87784 20.1018 7.2789 18.7799 8.02574 17.6989C8.76324 16.6313 9.80859 15.8333 11.3334 15.8333V14.8333C9.38613 14.8333 8.06654 15.8805 7.20299 17.1305C6.34878 18.3669 5.91269 19.8348 5.69874 20.8054L6.6753 21.0206ZM7.10502 21.5C6.79737 21.5 6.62418 21.2526 6.6753 21.0206L5.69874 20.8054C5.49516 21.729 6.22943 22.5 7.10502 22.5V21.5ZM9.09162 21.5H7.10502V22.5H9.09162V21.5ZM9.57192 22.139C10.1428 20.1656 11.4736 17.7994 14.6325 17.2745L14.4686 16.288C10.7603 16.9042 9.23131 19.7181 8.61132 21.8611L9.57192 22.139Z" fill="#222222"/>
</svg>
